<svg width="48" height="48" viewBox="0 0 48 48" fill="none" xmlns="http://www.w3.org/2000/svg">
    <!-- Stamp Circle -->
    <path d="M24 44C35.0457 44 44 35.0457 44 24C44 12.9543 35.0457 4 24 4C12.9543 4 4 12.9543 4 24C4 35.0457 12.9543 44 24 44Z" stroke="#1a1a1a" stroke-width="2" stroke-miterlimit="10"/>
    <!-- IRS Text -->
    <path d="M16 18V30" stroke="#1a1a1a" stroke-width="2" stroke-miterlimit="10"/>
    <path d="M14 18H18" stroke="#1a1a1a" stroke-width="2" stroke-miterlimit="10"/>
    <path d="M14 30H18" stroke="#1a1a1a" stroke-width="2" stroke-miterlimit="10"/>
    <!-- R -->
    <path d="M22 18V30" stroke="#1a1a1a" stroke-width="2" stroke-miterlimit="10"/>
    <path d="M22 18H26C27.6569 18 29 19.3431 29 21V21C29 22.6569 27.6569 24 26 24H22" stroke="#1a1a1a" stroke-width="2" stroke-miterlimit="10"/>
    <path d="M24 24L29 30" stroke="#1a1a1a" stroke-width="2" stroke-miterlimit="10"/>
    <!-- S -->
    <path d="M31 20C31 18.8954 31.8954 18 33 18H35C36.1046 18 37 18.8954 37 20V20C37 21.1046 36.1046 22 35 22H31C29.8954 22 29 22.8954 29 24V28C29 29.1046 29.8954 30 31 30H33C34.1046 30 35 29.1046 35 28" stroke="#1a1a1a" stroke-width="2" stroke-miterlimit="10"/>
</svg>