<svg width="48" height="48" viewBox="0 0 48 48" fill="none" xmlns="http://www.w3.org/2000/svg">
    <!-- Main Document -->
    <path d="M36 44H12C10.8954 44 10 43.1046 10 42V6C10 4.89543 10.8954 4 12 4H28L38 14V42C38 43.1046 37.1046 44 36 44Z" stroke="#1a1a1a" stroke-width="2" stroke-miterlimit="10"/>
    <!-- Folded Corner -->
    <path d="M28 4V14H38" stroke="#1a1a1a" stroke-width="2" stroke-miterlimit="10"/>
    <!-- Dollar Sign -->
    <path d="M24 20V32" stroke="#1a1a1a" stroke-width="2" stroke-miterlimit="10"/>
    <path d="M21 22H27C28.1046 22 29 21.1046 29 20V20C29 18.8954 28.1046 18 27 18H21C19.8954 18 19 18.8954 19 20V20C19 21.1046 19.8954 22 21 22Z" stroke="#1a1a1a" stroke-width="2" stroke-miterlimit="10"/>
    <path d="M27 32H21C19.8954 32 19 31.1046 19 30V30C19 28.8954 19.8954 28 21 28H27C28.1046 28 29 28.8954 29 30V30C29 31.1046 28.1046 32 27 32Z" stroke="#1a1a1a" stroke-width="2" stroke-miterlimit="10"/>
    <!-- Lines representing text -->
    <path d="M16 36H32" stroke="#1a1a1a" stroke-width="2" stroke-miterlimit="10"/>
    <path d="M16 39H28" stroke="#1a1a1a" stroke-width="2" stroke-miterlimit="10"/>
</svg>